<?xml version="1.0" encoding="UTF-8" standalone="no"?>
<svg
   xmlns:dc="http://purl.org/dc/elements/1.1/"
   xmlns:cc="http://creativecommons.org/ns#"
   xmlns:rdf="http://www.w3.org/1999/02/22-rdf-syntax-ns#"
   xmlns:svg="http://www.w3.org/2000/svg"
   xmlns="http://www.w3.org/2000/svg"
   xmlns:sodipodi="http://sodipodi.sourceforge.net/DTD/sodipodi-0.dtd"
   xmlns:inkscape="http://www.inkscape.org/namespaces/inkscape"
   version="1.1"
   id="svg833"
   width="89.919998"
   height="111.04"
   viewBox="0 0 89.919998 111.04"
   sodipodi:docname="logoAsepeyo.svg"
   inkscape:version="1.0.1 (3bc2e813f5, 2020-09-07)">
  <metadata
     id="metadata839">
    <rdf:RDF>
      <cc:Work
         rdf:about="">
        <dc:format>image/svg+xml</dc:format>
        <dc:type
           rdf:resource="http://purl.org/dc/dcmitype/StillImage" />
        <dc:title></dc:title>
      </cc:Work>
    </rdf:RDF>
  </metadata>
  <defs
     id="defs837" />
  <sodipodi:namedview
     pagecolor="#ffffff"
     bordercolor="#666666"
     borderopacity="1"
     objecttolerance="10"
     gridtolerance="10"
     guidetolerance="10"
     inkscape:pageopacity="0"
     inkscape:pageshadow="2"
     inkscape:window-width="1920"
     inkscape:window-height="986"
     id="namedview835"
     showgrid="false"
     inkscape:zoom="6.9058831"
     inkscape:cx="44.959999"
     inkscape:cy="55.52"
     inkscape:window-x="-11"
     inkscape:window-y="-11"
     inkscape:window-maximized="1"
     inkscape:current-layer="g841" />
  <g
     inkscape:groupmode="layer"
     inkscape:label="Image"
     id="g841">
    <path
       style="fill:#089dc1;stroke:none;stroke-width:0.32"
       d="M 0.63999999,0 V 1.6 H 30.719999 V 8 h 28.48 V 1.6 H 89.279998 V 0 H 0.63999999 m 0,9.6 v 1.92 H 30.719999 v 6.4 h 28.48 v -6.4 H 89.279998 V 9.6 H 0.63999999 m 0,9.92 v 1.6 H 30.719999 v 6.72 h 28.48 v -6.72 h 30.079999 v -1.6 H 0.63999999 m 0,9.92 v 8.64 H 89.279998 V 29.44 H 0.63999999 m 0,10.24 V 48 H 89.279998 V 39.68 H 0.63999999 m 0,9.92 v 8.64 H 89.279998 V 49.6 H 0.63999999 M 30.719999,59.84 v 7.04 H 0.63999999 v 1.6 L 56.639999,68.8 89.279998,68.48 v -1.6 H 59.199999 v -7.04 h -28.48 m 0,10.56 v 6.4 H 0.63999999 v 1.6 H 89.279998 V 76.8 H 59.199999 v -6.4 h -28.48 m 0,9.6 v 6.72 H 0.63999999 v 1.92 H 89.279998 V 86.72 H 59.199999 V 80 h -28.48 M 4.1599999,97.28 v 1.28 h 1.6 c -1.092448,2.46464 -1.814144,5.12288 -2.6666656,7.68 C 2.4766655,108.0896 2.1715904,109.59456 0,109.76 v 0.96 h 4.7999999 v -0.96 h -1.6 l 1.4432,-3.32704 L 9.9199998,105.92 11.2,109.76 H 9.2799998 v 0.96 H 14.08 v -0.96 c -1.846688,-0.29376 -2.100192,-1.60864 -2.695808,-3.2 -0.977376,-2.6112 -2.1153282,-5.28288 -2.7441922,-8 H 10.24 V 97.28 H 4.1599999 M 16.64,105.92 h -1.28 v 4.8 h 1.28 v -1.28 c 1.401568,1.07232 2.997888,1.80032 4.798752,1.37984 2.325247,-0.54304 3.971167,-3.31488 2.580991,-5.50528 -1.467936,-2.31264 -6.048607,-1.41248 -6.913311,-4.19904 -0.44144,-1.4224 1.275168,-2.19904 2.413824,-2.24096 1.630272,-0.05984 2.685824,0.77856 3.199743,2.24544 h 1.28 v -3.84 h -1.28 v 1.28 C 21.402624,97.74848 19.836224,97.03552 18.24,97.37824 c -2.222144,0.47712 -3.565888,3.00832 -2.28544,5.00416 1.418048,2.21056 6.197568,1.73024 6.739007,4.5024 0.390656,2.00032 -1.897311,2.97728 -3.488863,2.52384 -1.696608,-0.4832 -2.31328,-1.87776 -2.564704,-3.48864 m 9.919999,-8.64 v 1.28 h 1.6 v 11.2 h -1.6 v 0.96 h 10.88 v -3.52 h -1.28 v 2.56 h -6.4 v -5.12 h 5.44 v -1.28 h -5.44 v -4.8 h 6.4 v 2.24 h 1.28 v -3.52 h -10.88 m 12.8,0 v 1.28 h 1.92 v 11.2 h -1.92 v 0.96 h 5.12 v -0.96 h -1.92 v -4.48 c 1.77856,0 4.1168,0.32992 5.69152,-0.6848 2.12192,-1.36704 2.04928,-4.89472 0.03392,-6.26464 C 45.828159,96.66048 42.174399,97.28 39.359999,97.28 m 12.16,0 v 1.28 h 1.6 v 11.2 h -1.6 v 0.96 h 10.88 v -3.52 h -1.28 v 2.56 h -6.72 v -5.12 h 5.44 v -1.28 h -5.44 v -4.8 h 6.72 v 2.24 h 1.28 v -3.52 h -10.88 m 12.16,0 v 1.28 c 1.91648,0.1456 2.62016,1.3344 3.58144,2.88 0.690239,1.10976 1.649919,2.25088 2.015359,3.52 0.42432,1.47424 0.1632,3.27712 0.1632,4.8 h -1.92 v 0.96 h 5.12 v -0.96 h -1.92 c 0,-1.52288 -0.26112,-3.32576 0.1632,-4.8 0.36544,-1.26912 1.32512,-2.41024 2.01536,-3.52 0.96128,-1.5456 1.66496,-2.7344 3.58144,-2.88 v -1.28 h -4.8 v 1.28 h 1.6 l -2.88,4.8 h -0.32 l -2.879999,-4.8 h 1.599999 v -1.28 h -5.119999 m 18.239999,0.14208 c -8.44256,1.44672 -6.26976,14.97312 2.24,13.46912 8.71712,-1.5408 6.6496,-14.99264 -2.24,-13.46912 M 7.3599998,98.56 l 1.92,6.08 H 4.7999999 l 2.5599999,-6.08 m 35.1999992,5.76 v -5.76 c 1.54784,3.2e-4 3.39328,-0.16768 4.75264,0.72928 1.39232,0.9184 1.37856,3.43392 0,4.36192 -1.33952,0.90176 -3.22336,0.6688 -4.75264,0.6688 m 39.999999,-5.6624 c 7.06144,-0.78912 7.95328,10.37504 1.28,11.04544 -6.98432,0.70144 -8.40352,-10.24928 -1.28,-11.04544 z"
       id="path857" />
  </g>
</svg>
